{
    "asset" : {
        "generator" : "Khronos glTF Blender I/O v1.3.48",
        "version" : "2.0"
    },
    "scene" : 0,
    "scenes" : [
        {
            "name" : "Scene",
            "nodes" : [
                0,
                1,
                2,
                3,
                4,
                5,
                6
            ]
        }
    ],
    "nodes" : [
        {
            "name" : "Light",
            "rotation" : [
                0.16907575726509094,
                0.7558803558349609,
                -0.27217137813568115,
                0.570947527885437
            ],
            "translation" : [
                4.076245307922363,
                5.903861999511719,
                -1.0054539442062378
            ]
        },
        {
            "name" : "Camera",
            "rotation" : [
                0.483536034822464,
                0.33687159419059753,
                -0.20870360732078552,
                0.7804827094078064
            ],
            "translation" : [
                7.358891487121582,
                4.958309173583984,
                6.925790786743164
            ]
        },
        {
            "mesh" : 0,
            "name" : "Object_3"
        },
        {
            "mesh" : 1,
            "name" : "Object_9"
        },
        {
            "name" : "Front",
            "rotation" : [
                0.5000001192092896,
                0.5000000596046448,
                0.5,
                0.5
            ],
            "scale" : [
                0.0010000000474974513,
                0.0010000000474974513,
                0.0010000000474974513
            ],
            "translation" : [
                0.024516167119145393,
                -0.0010588762816041708,
                5.881152629852295
            ]
        },
        {
            "name" : "Right",
            "rotation" : [
                -0.7071068286895752,
                0.7071067094802856,
                0,
                -3.090862321641907e-08
            ],
            "scale" : [
                0.0010000000474974513,
                0.0010000000474974513,
                0.0010000000474974513
            ],
            "translation" : [
                7.0813469886779785,
                -0.0202331505715847,
                -0.030594760552048683
            ]
        },
        {
            "mesh" : 2,
            "name" : "camera",
            "rotation" : [
                0.7071068286895752,
                0,
                0,
                0.7071067094802856
            ],
            "scale" : [
                0.425088495016098,
                0.425088495016098,
                1
            ]
        }
    ],
    "materials" : [
        {
            "doubleSided" : true,
            "emissiveFactor" : [
                0,
                0,
                0
            ],
            "name" : "Material_2",
            "pbrMetallicRoughness" : {
                "baseColorFactor" : [
                    0.9803921580314636,
                    0.9803921580314636,
                    0.9803921580314636,
                    1
                ],
                "metallicFactor" : 1,
                "roughnessFactor" : 0.5527864098548889
            }
        },
        {
            "doubleSided" : true,
            "emissiveFactor" : [
                0,
                0,
                0
            ],
            "name" : "diffuse_Black",
            "pbrMetallicRoughness" : {
                "baseColorFactor" : [
                    0,
                    0,
                    0,
                    1
                ],
                "metallicFactor" : 0,
                "roughnessFactor" : 1
            }
        }
    ],
    "meshes" : [
        {
            "name" : "Object_3",
            "primitives" : [
                {
                    "attributes" : {
                        "POSITION" : 0,
                        "NORMAL" : 1,
                        "TEXCOORD_0" : 2
                    },
                    "indices" : 3,
                    "material" : 0
                }
            ]
        },
        {
            "name" : "Object_9",
            "primitives" : [
                {
                    "attributes" : {
                        "POSITION" : 4,
                        "NORMAL" : 5,
                        "TEXCOORD_0" : 6
                    },
                    "indices" : 7,
                    "material" : 0
                }
            ]
        },
        {
            "name" : "camera",
            "primitives" : [
                {
                    "attributes" : {
                        "POSITION" : 8,
                        "NORMAL" : 9,
                        "TEXCOORD_0" : 10
                    },
                    "indices" : 11,
                    "material" : 1
                }
            ]
        }
    ],
    "accessors" : [
        {
            "bufferView" : 0,
            "componentType" : 5126,
            "count" : 185,
            "max" : [
                2.6480891704559326,
                13.181981086730957,
                -31.042097091674805
            ],
            "min" : [
                1.3444713354110718,
                11.878362655639648,
                -31.783992767333984
            ],
            "type" : "VEC3"
        },
        {
            "bufferView" : 1,
            "componentType" : 5126,
            "count" : 185,
            "type" : "VEC3"
        },
        {
            "bufferView" : 2,
            "componentType" : 5126,
            "count" : 185,
            "type" : "VEC2"
        },
        {
            "bufferView" : 3,
            "componentType" : 5123,
            "count" : 864,
            "type" : "SCALAR"
        },
        {
            "bufferView" : 4,
            "componentType" : 5126,
            "count" : 185,
            "max" : [
                2.6480891704559326,
                3.952510118484497,
                -31.042097091674805
            ],
            "min" : [
                1.3444713354110718,
                2.648892402648926,
                -31.783992767333984
            ],
            "type" : "VEC3"
        },
        {
            "bufferView" : 5,
            "componentType" : 5126,
            "count" : 185,
            "type" : "VEC3"
        },
        {
            "bufferView" : 6,
            "componentType" : 5126,
            "count" : 185,
            "type" : "VEC2"
        },
        {
            "bufferView" : 7,
            "componentType" : 5123,
            "count" : 864,
            "type" : "SCALAR"
        },
        {
            "bufferView" : 8,
            "componentType" : 5126,
            "count" : 14215,
            "max" : [
                6.765130519866943,
                7.106873989105225,
                -1.466491460800171
            ],
            "min" : [
                -5.869776248931885,
                -31.947647094726562,
                -36.370155334472656
            ],
            "type" : "VEC3"
        },
        {
            "bufferView" : 9,
            "componentType" : 5126,
            "count" : 14215,
            "type" : "VEC3"
        },
        {
            "bufferView" : 10,
            "componentType" : 5126,
            "count" : 14215,
            "type" : "VEC2"
        },
        {
            "bufferView" : 11,
            "componentType" : 5123,
            "count" : 51378,
            "type" : "SCALAR"
        }
    ],
    "bufferViews" : [
        {
            "buffer" : 0,
            "byteLength" : 2220,
            "byteOffset" : 0
        },
        {
            "buffer" : 0,
            "byteLength" : 2220,
            "byteOffset" : 2220
        },
        {
            "buffer" : 0,
            "byteLength" : 1480,
            "byteOffset" : 4440
        },
        {
            "buffer" : 0,
            "byteLength" : 1728,
            "byteOffset" : 5920
        },
        {
            "buffer" : 0,
            "byteLength" : 2220,
            "byteOffset" : 7648
        },
        {
            "buffer" : 0,
            "byteLength" : 2220,
            "byteOffset" : 9868
        },
        {
            "buffer" : 0,
            "byteLength" : 1480,
            "byteOffset" : 12088
        },
        {
            "buffer" : 0,
            "byteLength" : 1728,
            "byteOffset" : 13568
        },
        {
            "buffer" : 0,
            "byteLength" : 170580,
            "byteOffset" : 15296
        },
        {
            "buffer" : 0,
            "byteLength" : 170580,
            "byteOffset" : 185876
        },
        {
            "buffer" : 0,
            "byteLength" : 113720,
            "byteOffset" : 356456
        },
        {
            "buffer" : 0,
            "byteLength" : 102756,
            "byteOffset" : 470176
        }
    ],
    "buffers" : [
        {
            "byteLength" : 572932,
            "uri" : "data:application/octet-stream;base64,"
        }
    ]
}
