{
    "asset" : {
        "generator" : "Khronos glTF Blender I/O v3.2.40",
        "version" : "2.0"
    },
    "scene" : 0,
    "scenes" : [
        {
            "name" : "Scene",
            "nodes" : [
                0
            ]
        }
    ],
    "nodes" : [
        {
            "mesh" : 0,
            "name" : "person",
            "rotation" : [
                0.027834979817271233,
                0.9246038198471069,
                -0.37973982095718384,
                0.011432073079049587
            ],
            "scale" : [
                0.4236944615840912,
                0.4236944615840912,
                0.4236944019794464
            ],
            "translation" : [
                0.7070896029472351,
                -0.4329826831817627,
                -2.1111273765563965
            ]
        }
    ],
    "materials" : [
        {
            "doubleSided" : true,
            "name" : "Material.001",
            "pbrMetallicRoughness" : {
                "baseColorFactor" : [
                    0.11891550570726395,
                    0.3011705279350281,
                    0.8000000715255737,
                    1
                ],
                "metallicFactor" : 0,
                "roughnessFactor" : 0.5
            }
        }
    ],
    "meshes" : [
        {
            "name" : "person",
            "primitives" : [
                {
                    "attributes" : {
                        "POSITION" : 0,
                        "NORMAL" : 1
                    },
                    "indices" : 2,
                    "material" : 0
                }
            ]
        }
    ],
    "accessors" : [
        {
            "bufferView" : 0,
            "componentType" : 5126,
            "count" : 1349,
            "max" : [
                7.126720905303955,
                4.134814739227295,
                3.3832051753997803
            ],
            "min" : [
                -5.25,
                -4.147664546966553,
                -7.604141712188721
            ],
            "type" : "VEC3"
        },
        {
            "bufferView" : 1,
            "componentType" : 5126,
            "count" : 1349,
            "type" : "VEC3"
        },
        {
            "bufferView" : 2,
            "componentType" : 5123,
            "count" : 2988,
            "type" : "SCALAR"
        }
    ],
    "bufferViews" : [
        {
            "buffer" : 0,
            "byteLength" : 16188,
            "byteOffset" : 0
        },
        {
            "buffer" : 0,
            "byteLength" : 16188,
            "byteOffset" : 16188
        },
        {
            "buffer" : 0,
            "byteLength" : 5976,
            "byteOffset" : 32376
        }
    ],
    "buffers" : [
        {
            "byteLength" : 38352,
            "uri" : "data:application/octet-stream;base64,"
        }
    ]
}
